<svg version="1.1"
     viewBox="0 0 640 400"
     xmlns="http://www.w3.org/2000/svg"
     xmlns:xlink="http://www.w3.org/1999/xlink"
     xmlns:svgjs="http://svgjs.dev/svgjs"
     matcher="0.6062542320416571">
	<g viewBox="0 0 640 400"
	   matcher="0.6062542320416571">
		<g matcher="0.6062542320416571">
			<g matcher="0.6062542320416571">
				<g matcher="0.6062542320416571">
					<svg viewBox="0 0 640 400"
					     preserveAspectRatio="xMidYMid meet"
					     height="400"
					     width="640"
					     xmlns="http://www.w3.org/2000/svg"
					     xmlns:xlink="http://www.w3.org/1999/xlink">
						<g id="tight-bounds"
						   transform="matrix(1,0,0,1,141.6980852389048,76.4)">
							<svg viewBox="0 0 356.6038295221904 247.2"
							     height="247.2"
							     width="356.6038295221904">
								<g>
									<svg viewBox="0 0 395.52 274.17693223038117"
									     height="247.2"
									     width="356.6038295221904">
										<g transform="matrix(1,0,0,1,0,203.03746008961872)">
											<svg viewBox="0 0 395.52 71.13947214076245"
											     height="71.13947214076245"
											     width="395.52">
												<g id="textblocktransform">
													<svg viewBox="0 0 395.52 71.13947214076245"
													     height="71.13947214076245"
													     width="395.52"
													     id="textblock">
														<g>
															<svg viewBox="0 0 395.52 71.13947214076245"
															     height="71.13947214076245"
															     width="395.52">
																<g transform="matrix(1,0,0,1,0,0)">
																	<svg width="395.52"
																	     viewBox="3.9000000953674316 -35.5 255.72000122070312 46"
																	     height="71.13947214076245"
																	     data-palette-color="#4d7e3e">
																		<path d="M3.9 0L3.9-35 20.6-35 20.6-32.35 6.7-32.35 6.7-20.65 15.25-20.65 14.1-17.9 6.7-17.9 6.7 0 3.9 0ZM33.55 0Q28.15 0.55 25.75 0.55L25.75 0.55Q20.5 0.55 17.4-1.4 14.3-3.35 14.3-8.45L14.3-8.45 14.3-12.6Q14.3-17.55 17.75-19.25L17.75-19.25Q19.4-20.1 21.95-20.1L21.95-20.1Q24.3-20.1 26.7-19.33 29.1-18.55 30.75-17.3L30.75-17.3Q30.75-20.05 29.15-21.68 27.55-23.3 23-23.3L23-23.3 23.15-25.45Q27.95-25.45 30.22-23.93 32.5-22.4 33.02-20.3 33.55-18.2 33.55-14.9L33.55-14.9 33.55 0ZM30.75-15.15Q28.7-16.1 26.37-16.8 24.05-17.5 22.1-17.5L22.1-17.5Q17.05-17.5 17.05-12.45L17.05-12.45 17.05-8.1Q17.05-4.85 19.3-3.38 21.55-1.9 25.7-1.9L25.7-1.9Q27.85-1.9 30.75-2.3L30.75-2.3 30.75-15.15ZM53.25-0.3Q50.15 0.5 47.25 0.5L47.25 0.5Q44.55 0.5 42.75-0.1L42.75-0.1Q39.8-1.1 38.47-3.18 37.15-5.25 37.15-9L37.15-9 37.15-15.4Q37.15-20.35 39.75-22.93 42.35-25.5 46.45-25.5L46.45-25.5Q49.7-25.5 53.15-23.9L53.15-23.9 52.35-21.85Q49.5-23 46.85-23L46.85-23Q43.75-23 41.85-21.23 39.95-19.45 39.95-15.7L39.95-15.7 39.95-8.45Q39.95-5 42.02-3.45 44.1-1.9 47.55-1.9L47.55-1.9Q49.8-1.9 52.65-2.55L52.65-2.55 53.25-0.3ZM61.99 0.65Q59.19-0.15 57.94-1.9 56.69-3.65 56.69-6.6L56.69-6.6 56.69-35 59.49-35 59.49-25.05 65.49-25.05 64.29-22.4 59.49-22.4 59.49-6.6Q59.49-2.6 62.79-1.5L62.79-1.5 61.99 0.65ZM89.19-9.2Q89.19-5 86.89-2.25 84.59 0.5 79.94 0.5L79.94 0.5Q75.29 0.5 72.92-2.27 70.54-5.05 70.54-9.2L70.54-9.2 70.54-15.8Q70.54-20.55 72.97-23.08 75.39-25.6 79.94-25.6L79.94-25.6Q84.29-25.6 86.74-22.98 89.19-20.35 89.19-15.8L89.19-15.8 89.19-9.2ZM86.39-15.8Q86.39-19.55 84.67-21.3 82.94-23.05 79.94-23.05L79.94-23.05Q76.84-23.05 75.09-21.3 73.34-19.55 73.34-15.8L73.34-15.8 73.34-8.7Q73.34-5.7 75.12-3.85 76.89-2 79.94-2L79.94-2Q83.04-2 84.72-3.83 86.39-5.65 86.39-8.7L86.39-8.7 86.39-15.8ZM93.89 0L93.89-25.05 96.69-25.05 96.54-23.3Q98.89-25.5 102.69-25.5L102.69-25.5Q104.04-25.5 106.39-25.05L106.39-25.05 105.64-22.5Q104.04-23 102.29-23L102.29-23Q99.99-23 98.34-22.15 96.69-21.3 96.69-19.6L96.69-19.6 96.69 0 93.89 0ZM121.19 8.35Q124.54 7.1 124.54 3.15L124.54 3.15 124.54-2.45Q123.59-0.85 121.69-0.13 119.79 0.6 117.59 0.6L117.59 0.6Q113.19 0.6 110.81-1.78 108.44-4.15 108.44-8.8L108.44-8.8 108.44-25.05 111.14-25.05 111.14-8.3Q111.14-5.1 112.89-3.53 114.64-1.95 117.59-1.95L117.59-1.95Q120.69-1.95 122.59-3.5 124.49-5.05 124.49-8.3L124.49-8.3 124.49-18.15Q124.49-20.55 124.64-21.73 124.79-22.9 125.56-23.93 126.34-24.95 128.14-25.5L128.14-25.5 128.89-23.6Q127.19-22.85 127.19-20.1L127.19-20.1 127.19 3.05Q127.19 6.1 125.99 7.85 124.79 9.6 121.94 10.5L121.94 10.5 121.19 8.35ZM137.23 0L137.23-32.45 133.88-32.55 133.88-35 140.03-35 140.03 0 137.23 0ZM162.68 0L162.68-17.15Q162.68-20.2 160.91-21.58 159.13-22.95 156.33-22.95L156.33-22.95Q154.63-22.95 152.88-22.48 151.13-22 149.78-21.25L149.78-21.25 149.78 0 146.98 0 146.98-25.05 149.78-25.05 149.58-23.35Q150.78-24.4 152.63-24.93 154.48-25.45 156.48-25.45L156.48-25.45Q159.23-25.45 161.18-24.55L161.18-24.55Q163.18-23.65 164.31-21.85 165.43-20.05 165.43-17.3L165.43-17.3 165.43 0 162.68 0ZM173.23-6.35Q173.53-4.1 175.48-2.98 177.43-1.85 179.83-1.85L179.83-1.85Q182.08-1.85 183.93-2.88 185.78-3.9 185.78-6.2L185.78-6.2Q185.78-7.7 184.9-8.68 184.03-9.65 182.73-10.25 181.43-10.85 179.23-11.55L179.23-11.55Q176.78-12.35 175.23-13.05 173.68-13.75 172.53-15.03 171.38-16.3 171.18-18.25L171.18-18.25 171.13-18.85Q171.13-20.5 172.05-22.08 172.98-23.65 174.9-24.65 176.83-25.65 179.73-25.65L179.73-25.65Q181.33-25.65 182.55-25.33 183.78-25 184.48-24.65 185.18-24.3 185.33-24.2L185.33-24.2 184.38-21.9Q184.23-22 183.65-22.3 183.08-22.6 182.03-22.9 180.98-23.2 179.73-23.2L179.73-23.2Q177.33-23.2 175.63-22.08 173.93-20.95 173.93-18.95L173.93-18.95Q173.93-17.05 175.48-16.05 177.03-15.05 180.23-14.05L180.23-14.05Q182.93-13.15 184.58-12.35 186.23-11.55 187.4-10.08 188.58-8.6 188.58-6.25L188.58-6.25Q188.58-3.25 186.35-1.25 184.13 0.75 179.83 0.75L179.83 0.75Q176.98 0.75 174.9-0.23 172.83-1.2 171.75-2.8 170.68-4.4 170.58-6.35L170.58-6.35 173.23-6.35ZM195.93-32.15Q195.28-32.15 194.75-32.68 194.23-33.2 194.23-33.85L194.23-33.85Q194.23-34.5 194.73-35 195.23-35.5 195.93-35.5L195.93-35.5Q196.63-35.5 197.1-35.02 197.58-34.55 197.58-33.85L197.58-33.85Q197.58-33.15 197.08-32.65 196.58-32.15 195.93-32.15L195.93-32.15ZM194.48 0L194.48-25.05 197.28-25.05 197.28 0 194.48 0ZM216.17 8.35Q219.47 7.1 219.47 3.15L219.47 3.15 219.47-3.05Q217.37 0.6 212.72 0.6L212.72 0.6Q208.32 0.6 205.87-1.8 203.42-4.2 203.42-8.8L203.42-8.8 203.42-16.25Q203.42-20.65 206-23.08 208.57-25.5 212.92-25.5L212.92-25.5Q217.57-25.5 219.67-22.15L219.67-22.15 219.47-25.05 222.27-25.05 222.27 3.2Q222.27 6.2 221.02 7.9 219.77 9.6 216.92 10.5L216.92 10.5 216.17 8.35ZM219.47-16.8Q219.47-19.9 217.47-21.43 215.47-22.95 212.72-22.95L212.72-22.95Q210.07-22.95 208.15-21.33 206.22-19.7 206.22-16L206.22-16 206.22-8.35Q206.22-5.2 208-3.6 209.77-2 212.72-2L212.72-2Q215.52-2 217.5-3.73 219.47-5.45 219.47-8.65L219.47-8.65 219.47-16.8ZM242.87 0L242.87-17.15Q242.87-20.2 241.1-21.58 239.32-22.95 236.52-22.95L236.52-22.95Q234.82-22.95 233.07-22.48 231.32-22 229.97-21.25L229.97-21.25 229.97 0 227.17 0 227.17-35 229.97-35 229.97-23.7Q231.22-24.55 232.97-25.03 234.72-25.5 236.62-25.5L236.62-25.5Q239.22-25.5 241.37-24.55L241.37-24.55Q243.37-23.65 244.5-21.85 245.62-20.05 245.62-17.3L245.62-17.3 245.62 0 242.87 0ZM256.12 0.65Q253.32-0.15 252.07-1.9 250.82-3.65 250.82-6.6L250.82-6.6 250.82-35 253.62-35 253.62-25.05 259.62-25.05 258.42-22.4 253.62-22.4 253.62-6.6Q253.62-2.6 256.92-1.5L256.92-1.5 256.12 0.65Z"
																		      opacity="1"
																		      transform="matrix(1,0,0,1,0,0)"
																		      fill="#4d7e3e"
																		      class="wordmark-text-0"
																		      data-fill-palette-color="primary"
																		      id="text-0"/>
																	</svg>
																</g>
															</svg>
														</g>
													</svg>
												</g>
											</svg>
										</g>
										<g transform="matrix(1,0,0,1,104.63843096774195,0)">
											<svg viewBox="0 0 186.24313806451607 186.24313806451607"
											     height="186.24313806451607"
											     width="186.24313806451607">
												<g>
													<svg xmlns="http://www.w3.org/2000/svg"
													     xmlns:xlink="http://www.w3.org/1999/xlink"
													     version="1.1"
													     x="0"
													     y="0"
													     viewBox="0.40000009536743164 0.40000009536743164 47.20000076293945 47.20000076293945"
													     enable-background="new 0 0 48 48"
													     xml:space="preserve"
													     height="186.24313806451607"
													     width="186.24313806451607"
													     class="icon-icon-0"
													     data-fill-palette-color="accent"
													     id="icon-0">
														<g fill="#4d7e3e"
														   data-fill-palette-color="accent">
															<path d="M45.5 33.9c-1.1 0-2 0.9-2 2v7.7h-7.7c-1.1 0-2 0.9-2 2s0.9 2 2 2h9.6c1.1 0 2-0.9 2-2v-9.6C47.5 34.8 46.6 33.9 45.5 33.9z"
															      fill="#4d7e3e"
															      data-fill-palette-color="accent"/>
															<path d="M12.1 43.6H4.4v-7.7c0-1.1-0.9-2-2-2s-2 0.9-2 2v9.6c0 1.1 0.9 2 2 2h9.6c1.1 0 2-0.9 2-2S13.2 43.6 12.1 43.6z"
															      fill="#4d7e3e"
															      data-fill-palette-color="accent"/>
															<path d="M2.5 14.1c1.1 0 2-0.9 2-2V4.4h7.7c1.1 0 2-0.9 2-2s-0.9-2-2-2H2.5c-1.1 0-2 0.9-2 2v9.6C0.5 13.2 1.4 14.1 2.5 14.1z"
															      fill="#4d7e3e"
															      data-fill-palette-color="accent"/>
															<path d="M45.5 0.5h-9.6c-1.1 0-2 0.9-2 2s0.9 2 2 2h7.7v7.7c0 1.1 0.9 2 2 2s2-0.9 2-2V2.5C47.5 1.4 46.6 0.5 45.5 0.5z"
															      fill="#4d7e3e"
															      data-fill-palette-color="accent"/>
															<path d="M24 19.9c-2.3 0-4.1 1.8-4.1 4.1s1.8 4.1 4.1 4.1c2.3 0 4.1-1.8 4.1-4.1S26.3 19.9 24 19.9z"
															      fill="#4d7e3e"
															      data-fill-palette-color="accent"/>
															<path d="M45.2 24c0-0.5-0.2-1.1-0.6-1.4-5.5-5.1-12.8-8-20.6-8-7.8 0-15.1 2.8-20.6 8C3 22.9 2.8 23.5 2.8 24c0 0.5 0.2 1.1 0.6 1.4 5.5 5.1 12.8 8 20.6 8 7.8 0 15.1-2.8 20.6-8C45 25.1 45.2 24.5 45.2 24zM24 32c-4.4 0-8-3.6-8-8 0-4.4 3.6-8 8-8 4.4 0 8 3.6 8 8C32 28.4 28.4 32 24 32z"
															      fill="#4d7e3e"
															      data-fill-palette-color="accent"/>
														</g>
													</svg>
												</g>
											</svg>
										</g>
										<g/>
									</svg>
								</g>
								<defs/>
							</svg>
							<rect width="356.6038295221904"
							      height="247.2"
							      fill="none"
							      stroke="none"
							      visibility="hidden"/>
						</g>
					</svg>
				</g>
			</g>
		</g>
	</g>
	<rect width="368.56200408935547"
	      height="76.13990020751953"
	      x="136.71901702880854"
	      y="254.46010589599604"
	      rx="2.5"
	      ry="2.5"
	      fill="transparent"
	      class="logo-element-hover-target"/>
	<rect width="179.91824340820312"
	      height="179.91820526123044"
	      x="231.04087829589838"
	      y="71.4000034332275"
	      rx="2.5"
	      ry="2.5"
	      fill="transparent"
	      class="logo-element-hover-target"/>
</svg>