<?xml version="1.0" encoding="UTF-8"?>
<!DOCTYPE svg PUBLIC "-//W3C//DTD SVG 1.1//EN" "http://www.w3.org/Graphics/SVG/1.1/DTD/svg11.dtd">
<svg xmlns="http://www.w3.org/2000/svg" version="1.1" width="292px" height="215px" style="shape-rendering:geometricPrecision; text-rendering:geometricPrecision; image-rendering:optimizeQuality; fill-rule:evenodd; clip-rule:evenodd" xmlns:xlink="http://www.w3.org/1999/xlink">

<circle cx="140" cy="108" r="91" fill="var(--color-background)" stroke="var(--color-primary)" stroke-width="3.7"/>
<circle cx="140" cy="108" r="84" fill="var(--color-background)" stroke="var(--color-primary)" stroke-width="3.7"/>


<g><path style="opacity:0.532" fill="#e5e5e6" d="M 201.5,77.5 C 199.641,77.5391 198.308,76.7058 197.5,75C 160.5,74.3333 123.5,74.3333 86.5,75C 83.2206,76.1486 79.8873,76.9819 76.5,77.5C 77.9361,76.5714 79.2695,75.4048 80.5,74C 118.813,72.4041 157.146,72.0707 195.5,73C 198.229,73.5661 200.229,75.0661 201.5,77.5 Z"/></g>
<g><path style="opacity:0.959" fill="#bebec2" d="M 201.5,77.5 C 202.5,77.5 203.5,77.5 204.5,77.5C 204.649,78.552 204.483,79.552 204,80.5C 201.616,80.964 199.449,82.2973 197.5,84.5C 194.833,84.5 192.167,84.5 189.5,84.5C 189.75,87.5045 188.417,89.3378 185.5,90C 183.667,90.1667 181.833,90.3333 180,90.5C 177.705,90.4535 175.871,89.7868 174.5,88.5C 174.5,87.1667 174.5,85.8333 174.5,84.5C 178.582,84.8789 182.249,83.8789 185.5,81.5C 187.163,83.8007 188.997,83.8007 191,81.5C 191.654,82.6956 192.154,82.6956 192.5,81.5C 189.851,79.4499 186.851,78.2833 183.5,78C 151.495,77.1668 119.495,77.3334 87.5,78.5C 84.3842,79.3976 81.2176,80.0643 78,80.5C 76.6244,80.3158 75.7911,79.6491 75.5,78.5C 75.5,77.8333 75.8333,77.5 76.5,77.5C 79.8873,76.9819 83.2206,76.1486 86.5,75C 123.5,74.3333 160.5,74.3333 197.5,75C 198.308,76.7058 199.641,77.5391 201.5,77.5 Z"/></g>
<g><path style="opacity:0.989" fill="#c3c4ca" d="M 174.5,84.5 C 165.5,84.5 156.5,84.5 147.5,84.5C 147.365,86.5542 148.032,88.2209 149.5,89.5C 148.209,89.7373 147.209,89.404 146.5,88.5C 146.5,87.1667 146.5,85.8333 146.5,84.5C 141.833,84.5 137.167,84.5 132.5,84.5C 132.5,85.5 132.5,86.5 132.5,87.5C 132.167,87.5 131.833,87.5 131.5,87.5C 131.5,86.5 131.5,85.5 131.5,84.5C 130.167,84.5 128.833,84.5 127.5,84.5C 121.936,83.8549 116.269,83.0215 110.5,82C 117.5,81.6667 124.5,81.3333 131.5,81C 120.167,80.3333 108.833,80.3333 97.5,81C 102.535,81.9987 102.535,83.1653 97.5,84.5C 95.8333,84.5 94.1667,84.5 92.5,84.5C 91.7659,83.2921 91.4326,81.9587 91.5,80.5C 88.8127,80.3359 86.146,80.5026 83.5,81C 85.8333,81.3333 88.1667,81.6667 90.5,82C 89.565,84.3806 89.2317,86.8806 89.5,89.5C 87.4862,89.3915 85.8195,90.0582 84.5,91.5C 84.9156,89.2475 86.249,87.7475 88.5,87C 85.911,86.6646 83.2443,85.9979 80.5,85C 79.3306,83.1642 77.664,81.9976 75.5,81.5C 74.2241,80.3864 74.2241,79.3864 75.5,78.5C 75.7911,79.6491 76.6244,80.3158 78,80.5C 81.2176,80.0643 84.3842,79.3976 87.5,78.5C 119.495,77.3334 151.495,77.1668 183.5,78C 186.851,78.2833 189.851,79.4499 192.5,81.5C 192.154,82.6956 191.654,82.6956 191,81.5C 188.997,83.8007 187.163,83.8007 185.5,81.5C 182.249,83.8789 178.582,84.8789 174.5,84.5 Z"/></g>
<g><path style="opacity:1" fill="#9a9da3" d="M 146.5,88.5 C 141.637,88.8195 136.97,88.4861 132.5,87.5C 132.5,86.5 132.5,85.5 132.5,84.5C 137.167,84.5 141.833,84.5 146.5,84.5C 146.5,85.8333 146.5,87.1667 146.5,88.5 Z"/></g>
<g><path style="opacity:1" fill="#c0c2c9" d="M 92.5,84.5 C 91.3509,84.7911 90.6842,85.6244 90.5,87C 90.6667,87.8333 90.8333,88.6667 91,89.5C 95.0659,88.5363 99.2325,88.203 103.5,88.5C 103.5,87.1667 103.5,85.8333 103.5,84.5C 101.5,84.5 99.5,84.5 97.5,84.5C 102.535,83.1653 102.535,81.9987 97.5,81C 108.833,80.3333 120.167,80.3333 131.5,81C 124.5,81.3333 117.5,81.6667 110.5,82C 116.269,83.0215 121.936,83.8549 127.5,84.5C 119.833,84.5 112.167,84.5 104.5,84.5C 104.5,85.8333 104.5,87.1667 104.5,88.5C 105.822,88.33 106.989,88.6634 108,89.5C 108.96,91.9803 109.793,94.4803 110.5,97C 102.451,97.8016 94.4508,97.6349 86.5,96.5C 85.8333,97.1667 85.1667,97.8333 84.5,98.5C 83.9426,96.2825 83.9426,93.9491 84.5,91.5C 85.8195,90.0582 87.4862,89.3915 89.5,89.5C 89.2317,86.8806 89.565,84.3806 90.5,82C 88.1667,81.6667 85.8333,81.3333 83.5,81C 86.146,80.5026 88.8127,80.3359 91.5,80.5C 91.4326,81.9587 91.7659,83.2921 92.5,84.5 Z"/></g>
<g><path style="opacity:1" fill="#a0a2ab" d="M 92.5,84.5 C 94.1667,84.5 95.8333,84.5 97.5,84.5C 99.5,84.5 101.5,84.5 103.5,84.5C 103.5,85.8333 103.5,87.1667 103.5,88.5C 99.2325,88.203 95.0659,88.5363 91,89.5C 90.8333,88.6667 90.6667,87.8333 90.5,87C 90.6842,85.6244 91.3509,84.7911 92.5,84.5 Z"/></g>
<g><path style="opacity:1" fill="#bdc2c8" d="M 131.5,87.5 C 131.833,87.5 132.167,87.5 132.5,87.5C 136.97,88.4861 141.637,88.8195 146.5,88.5C 147.209,89.404 148.209,89.7373 149.5,89.5C 150.167,89.8333 150.833,90.1667 151.5,90.5C 151.244,92.7925 151.577,94.9592 152.5,97C 143.84,97.4998 135.173,97.6664 126.5,97.5C 126.873,94.4261 127.539,91.4261 128.5,88.5C 129.791,88.7373 130.791,88.404 131.5,87.5 Z"/></g>
<g><path style="opacity:1" fill="#c2c4ce" d="M 197.5,84.5 C 195.387,86.2336 193.054,86.7336 190.5,86C 193.2,87.8567 194.866,90.3567 195.5,93.5C 195.5,94.8333 195.5,96.1667 195.5,97.5C 186.833,97.5 178.167,97.5 169.5,97.5C 169.5,95.8333 169.5,94.1667 169.5,92.5C 169.933,89.7411 171.6,88.4078 174.5,88.5C 175.871,89.7868 177.705,90.4535 180,90.5C 181.833,90.3333 183.667,90.1667 185.5,90C 188.417,89.3378 189.75,87.5045 189.5,84.5C 192.167,84.5 194.833,84.5 197.5,84.5 Z"/></g>
<g><path style="opacity:1" fill="#d8dae0" d="M 127.5,84.5 C 128.833,84.5 130.167,84.5 131.5,84.5C 131.5,85.5 131.5,86.5 131.5,87.5C 130.791,88.404 129.791,88.7373 128.5,88.5C 129.739,87.788 130.239,86.788 130,85.5C 122.35,85.2386 114.516,85.5719 106.5,86.5C 109.567,90.2868 112.4,94.2868 115,98.5C 115.667,101.833 115.667,105.167 115,108.5C 113.409,111.352 112.076,114.352 111,117.5C 110.234,125.701 109.067,133.701 107.5,141.5C 107.833,134.833 108.167,128.167 108.5,121.5C 109.434,120.432 109.768,119.099 109.5,117.5C 110.03,114.318 111.03,111.318 112.5,108.5C 102.167,108.5 91.8333,108.5 81.5,108.5C 81.5,109.5 81.5,110.5 81.5,111.5C 78.7233,108.022 77.8899,104.022 79,99.5C 81.0869,96.9297 82.9202,94.263 84.5,91.5C 83.9426,93.9491 83.9426,96.2825 84.5,98.5C 85.1667,97.8333 85.8333,97.1667 86.5,96.5C 94.4508,97.6349 102.451,97.8016 110.5,97C 109.793,94.4803 108.96,91.9803 108,89.5C 106.989,88.6634 105.822,88.33 104.5,88.5C 104.5,87.1667 104.5,85.8333 104.5,84.5C 112.167,84.5 119.833,84.5 127.5,84.5 Z"/></g>
<g><path style="opacity:1" fill="#d5d7df" d="M 169.5,92.5 C 169.5,94.1667 169.5,95.8333 169.5,97.5C 178.167,97.5 186.833,97.5 195.5,97.5C 195.5,96.1667 195.5,94.8333 195.5,93.5C 200.588,99.9944 200.755,106.661 196,113.5C 195.814,116.036 195.314,118.369 194.5,120.5C 194.5,119.833 194.5,119.167 194.5,118.5C 194.5,118.167 194.5,117.833 194.5,117.5C 186.657,116.833 178.657,116.167 170.5,115.5C 171.137,113.697 172.303,112.364 174,111.5C 180.333,112.833 186.667,112.833 193,111.5C 193.333,112.167 193.667,112.833 194,113.5C 195.883,112.347 196.716,110.681 196.5,108.5C 186.193,108.456 176.193,108.456 166.5,108.5C 165.883,108.389 165.383,108.056 165,107.5C 164.333,105.167 164.333,102.833 165,100.5C 166.793,97.9383 168.293,95.2716 169.5,92.5 Z"/></g>
<g><path style="opacity:0.335" fill="#e4e7ea" d="M 174.5,84.5 C 174.5,85.8333 174.5,87.1667 174.5,88.5C 171.6,88.4078 169.933,89.7411 169.5,92.5C 168.293,95.2716 166.793,97.9383 165,100.5C 164.333,102.833 164.333,105.167 165,107.5C 165.383,108.056 165.883,108.389 166.5,108.5C 168.274,111.118 169.274,114.118 169.5,117.5C 169.198,120.059 169.532,122.393 170.5,124.5C 170.5,127.5 170.5,130.5 170.5,133.5C 169.104,127.721 168.271,121.721 168,115.5C 163.32,110.153 161.987,104.153 164,97.5C 166.361,93.4333 169.194,89.7667 172.5,86.5C 164.715,85.0671 156.715,85.2338 148.5,87C 149.448,87.4828 150.448,87.6495 151.5,87.5C 151.5,88.5 151.5,89.5 151.5,90.5C 150.833,90.1667 150.167,89.8333 149.5,89.5C 148.032,88.2209 147.365,86.5542 147.5,84.5C 156.5,84.5 165.5,84.5 174.5,84.5 Z"/></g>
<g><path style="opacity:1" fill="#d5d8df" d="M 128.5,88.5 C 127.539,91.4261 126.873,94.4261 126.5,97.5C 135.173,97.6664 143.84,97.4998 152.5,97C 151.577,94.9592 151.244,92.7925 151.5,90.5C 154.46,94.2478 156.794,98.4145 158.5,103C 156.861,108.422 154.861,113.589 152.5,118.5C 144.231,116.53 135.565,115.864 126.5,116.5C 121.941,111.352 120.441,105.352 122,98.5C 124.44,95.2722 126.606,91.9389 128.5,88.5 Z"/></g>
<g><path style="opacity:1" fill="#c4c5ce" d="M 194.5,117.5 C 186.167,117.5 177.833,117.5 169.5,117.5C 169.274,114.118 168.274,111.118 166.5,108.5C 176.193,108.456 186.193,108.456 196.5,108.5C 196.716,110.681 195.883,112.347 194,113.5C 193.667,112.833 193.333,112.167 193,111.5C 186.667,112.833 180.333,112.833 174,111.5C 172.303,112.364 171.137,113.697 170.5,115.5C 178.657,116.167 186.657,116.833 194.5,117.5 Z"/></g>
<g><path style="opacity:1" fill="#c4c5ce" d="M 126.5,108.5 C 135.833,108.5 145.167,108.5 154.5,108.5C 154.64,110.124 153.973,111.29 152.5,112C 143.84,112.5 135.173,112.666 126.5,112.5C 126.5,111.167 126.5,109.833 126.5,108.5 Z"/></g>
<g><path style="opacity:1" fill="#cbd0da" d="M 109.5,117.5 C 101.167,117.5 92.8333,117.5 84.5,117.5C 84.5,119.167 84.5,120.833 84.5,122.5C 84.002,118.73 83.002,115.063 81.5,111.5C 81.5,110.5 81.5,109.5 81.5,108.5C 91.8333,108.5 102.167,108.5 112.5,108.5C 111.03,111.318 110.03,114.318 109.5,117.5 Z"/></g>
<g><path style="opacity:1" fill="#b8bcc2" d="M 126.5,117.5 C 126.5,117.167 126.5,116.833 126.5,116.5C 135.565,115.864 144.231,116.53 152.5,118.5C 152.321,127.068 151.321,135.401 149.5,143.5C 149.837,134.806 150.503,126.139 151.5,117.5C 143.167,117.5 134.833,117.5 126.5,117.5 Z"/></g>
<g><path style="opacity:1" fill="#686f7b" d="M 109.5,117.5 C 109.768,119.099 109.434,120.432 108.5,121.5C 108.715,119.821 108.048,118.821 106.5,118.5C 105.5,118.5 104.5,118.5 103.5,118.5C 97.5,118.5 91.5,118.5 85.5,118.5C 85.5,120.167 85.5,121.833 85.5,123.5C 85.1667,123.5 84.8333,123.5 84.5,123.5C 84.5,123.167 84.5,122.833 84.5,122.5C 84.5,120.833 84.5,119.167 84.5,117.5C 92.8333,117.5 101.167,117.5 109.5,117.5 Z"/></g>
<g><path style="opacity:1" fill="#686d77" d="M 169.5,117.5 C 177.833,117.5 186.167,117.5 194.5,117.5C 194.5,117.833 194.5,118.167 194.5,118.5C 186.5,118.5 178.5,118.5 170.5,118.5C 170.5,120.5 170.5,122.5 170.5,124.5C 169.532,122.393 169.198,120.059 169.5,117.5 Z"/></g>
<g><path style="opacity:1" fill="#464b5b" d="M 133.5,146.5 C 131.248,146.084 129.748,144.751 129,142.5C 128.088,137.536 127.588,132.536 127.5,127.5C 127.5,124.5 127.5,121.5 127.5,118.5C 134.833,118.5 142.167,118.5 149.5,118.5C 148.635,126.466 148.302,134.466 148.5,142.5C 145.402,142.413 145.068,142.913 147.5,144C 143,145.792 138.333,146.625 133.5,146.5 Z"/></g>
<g><path style="opacity:0.973" fill="#5e636a" d="M 126.5,117.5 C 134.833,117.5 143.167,117.5 151.5,117.5C 150.503,126.139 149.837,134.806 149.5,143.5C 148.657,145.173 147.324,146.34 145.5,147C 141.311,147.812 137.311,147.645 133.5,146.5C 138.333,146.625 143,145.792 147.5,144C 145.068,142.913 145.402,142.413 148.5,142.5C 148.302,134.466 148.635,126.466 149.5,118.5C 142.167,118.5 134.833,118.5 127.5,118.5C 127.5,121.5 127.5,124.5 127.5,127.5C 126.521,124.375 126.187,121.042 126.5,117.5 Z"/></g>
<g><path style="opacity:0.998" fill="#505560" d="M 194.5,118.5 C 194.5,119.167 194.5,119.833 194.5,120.5C 194.346,129.249 193.012,137.749 190.5,146C 184.86,147.949 179.193,147.949 173.5,146C 172.299,145.097 171.465,143.931 171,142.5C 170.502,139.518 170.335,136.518 170.5,133.5C 170.5,130.5 170.5,127.5 170.5,124.5C 170.5,122.5 170.5,120.5 170.5,118.5C 178.5,118.5 186.5,118.5 194.5,118.5 Z"/></g>
<g><path style="opacity:1" fill="#43485b" d="M 178.5,120.5 C 180.195,121.011 181.861,121.678 183.5,122.5C 182.689,123.216 182.022,124.05 181.5,125C 183.542,128.585 184.876,132.418 185.5,136.5C 186.873,136.343 188.207,136.51 189.5,137C 188.903,138.628 189.237,140.295 190.5,142C 185.32,144.851 179.987,145.185 174.5,143C 175.258,141.636 174.758,140.469 173,139.5C 171.416,134.544 171.416,129.544 173,124.5C 173.182,127.226 173.682,129.893 174.5,132.5C 174.743,129.687 175.076,126.854 175.5,124C 176.648,122.274 177.815,122.441 179,124.5C 179.195,123.181 179.028,121.847 178.5,120.5 Z"/></g>
<g><path style="opacity:1" fill="#474f5d" d="M 103.5,118.5 C 102.613,121.739 101.28,124.739 99.5,127.5C 97.8333,127.5 96.1667,127.5 94.5,127.5C 93.5389,124.705 91.7055,122.705 89,121.5C 88.3551,122.646 87.5217,123.646 86.5,124.5C 88.1178,128.644 88.9511,132.978 89,137.5C 89.5,138.667 90.3333,139.5 91.5,140C 90.6919,140.308 90.0253,140.808 89.5,141.5C 90.8524,142.896 92.5191,143.563 94.5,143.5C 97.4829,142.447 100.483,141.281 103.5,140C 100.215,139.241 97.2154,137.908 94.5,136C 96.8532,135.117 98.6866,133.617 100,131.5C 102.06,132.59 103.393,134.257 104,136.5C 105.182,132.476 105.348,128.476 104.5,124.5C 104.846,123.304 105.346,123.304 106,124.5C 106.495,122.527 106.662,120.527 106.5,118.5C 108.048,118.821 108.715,119.821 108.5,121.5C 108.167,128.167 107.833,134.833 107.5,141.5C 107.703,143.39 107.037,144.89 105.5,146C 99.1743,148.409 93.1743,147.909 87.5,144.5C 86.6518,142.591 86.3184,140.591 86.5,138.5C 86.3867,133.482 86.0534,128.482 85.5,123.5C 85.5,121.833 85.5,120.167 85.5,118.5C 91.5,118.5 97.5,118.5 103.5,118.5 Z"/></g>
<g><path style="opacity:1" fill="#424a5d" d="M 103.5,118.5 C 104.5,118.5 105.5,118.5 106.5,118.5C 106.662,120.527 106.495,122.527 106,124.5C 105.346,123.304 104.846,123.304 104.5,124.5C 105.348,128.476 105.182,132.476 104,136.5C 103.393,134.257 102.06,132.59 100,131.5C 98.6866,133.617 96.8532,135.117 94.5,136C 97.2154,137.908 100.215,139.241 103.5,140C 100.483,141.281 97.4829,142.447 94.5,143.5C 92.5191,143.563 90.8524,142.896 89.5,141.5C 90.0253,140.808 90.6919,140.308 91.5,140C 90.3333,139.5 89.5,138.667 89,137.5C 88.9511,132.978 88.1178,128.644 86.5,124.5C 87.5217,123.646 88.3551,122.646 89,121.5C 91.7055,122.705 93.5389,124.705 94.5,127.5C 96.1667,127.5 97.8333,127.5 99.5,127.5C 101.28,124.739 102.613,121.739 103.5,118.5 Z"/></g>
<g><path style="opacity:0.133" fill="#b0b1b6" d="M 84.5,123.5 C 84.8333,123.5 85.1667,123.5 85.5,123.5C 86.0534,128.482 86.3867,133.482 86.5,138.5C 85.111,133.731 84.4443,128.731 84.5,123.5 Z"/></g>
</svg>
