<?xml version="1.0" encoding="UTF-8"?>
<!DOCTYPE svg PUBLIC "-//W3C//DTD SVG 1.1//EN" "http://www.w3.org/Graphics/SVG/1.1/DTD/svg11.dtd">
<svg xmlns="http://www.w3.org/2000/svg" version="1.1" width="298px" height="273px" style="shape-rendering:geometricPrecision; text-rendering:geometricPrecision; image-rendering:optimizeQuality; fill-rule:evenodd; clip-rule:evenodd" xmlns:xlink="http://www.w3.org/1999/xlink">

<circle cx="140" cy="137" r="91" fill="var(--color-background)" stroke="var(--color-primary)" stroke-width="3.7"/>
<circle cx="140" cy="137" r="84" fill="var(--color-background)" stroke="var(--color-primary)" stroke-width="3.7"/>

<g><path style="opacity:0.004" fill="#fefffe" d="M 18.5,1.5 C 19.8333,2.16667 19.8333,2.16667 18.5,1.5 Z"/></g>
<g><path style="opacity:0.004" fill="#fefffe" d="M 36.5,1.5 C 37.8333,2.16667 37.8333,2.16667 36.5,1.5 Z"/></g>
<g><path style="opacity:0.004" fill="#fefffe" d="M 252.5,1.5 C 253.833,2.16667 253.833,2.16667 252.5,1.5 Z"/></g>
<g><path style="opacity:0.004" fill="#fefffe" d="M 290.5,17.5 C 291.833,18.1667 291.833,18.1667 290.5,17.5 Z"/></g>
<g><path style="opacity:0.004" fill="#fefffe" d="M 43.5,18.5 C 44.8333,19.1667 44.8333,19.1667 43.5,18.5 Z"/></g>
<g><path style="opacity:0.004" fill="#fefffe" d="M 280.5,18.5 C 281.833,19.1667 281.833,19.1667 280.5,18.5 Z"/></g>
<g><path style="opacity:0.004" fill="#fefffe" d="M 99.5,25.5 C 100.833,26.1667 100.833,26.1667 99.5,25.5 Z"/></g>
<g><path style="opacity:0.004" fill="#fefffe" d="M 101.5,29.5 C 102.833,30.1667 102.833,30.1667 101.5,29.5 Z"/></g>
<g><path style="opacity:0.004" fill="#fefffe" d="M 152.5,29.5 C 153.833,30.1667 153.833,30.1667 152.5,29.5 Z"/></g>
<g><path style="opacity:0.004" fill="#fefffe" d="M 51.5,31.5 C 52.8333,32.1667 52.8333,32.1667 51.5,31.5 Z"/></g>
<g><path style="opacity:0.004" fill="#fefffe" d="M 198.5,31.5 C 199.833,32.1667 199.833,32.1667 198.5,31.5 Z"/></g>
<g><path style="opacity:0.004" fill="#fefffe" d="M 285.5,31.5 C 286.833,32.1667 286.833,32.1667 285.5,31.5 Z"/></g>
<g><path style="opacity:0.004" fill="#fefffe" d="M 217.5,36.5 C 218.833,37.1667 218.833,37.1667 217.5,36.5 Z"/></g>
<g><path style="opacity:0.004" fill="#fefffe" d="M 244.5,36.5 C 245.833,37.1667 245.833,37.1667 244.5,36.5 Z"/></g>
<g><path style="opacity:0.004" fill="#fefffe" d="M 96.5,40.5 C 97.8333,41.1667 97.8333,41.1667 96.5,40.5 Z"/></g>
<g><path style="opacity:0.004" fill="#fefffe" d="M 102.5,49.5 C 103.833,50.1667 103.833,50.1667 102.5,49.5 Z"/></g>
<g><path style="opacity:0.004" fill="#fefffe" d="M 199.5,51.5 C 200.833,52.1667 200.833,52.1667 199.5,51.5 Z"/></g>
<g><path style="opacity:0.004" fill="#fefffe" d="M 28.5,54.5 C 29.8333,55.1667 29.8333,55.1667 28.5,54.5 Z"/></g>
<g><path style="opacity:0.004" fill="#fefffe" d="M 98.5,56.5 C 99.8333,57.1667 99.8333,57.1667 98.5,56.5 Z"/></g>
<g><path style="opacity:0.004" fill="#fefffe" d="M 254.5,56.5 C 255.833,57.1667 255.833,57.1667 254.5,56.5 Z"/></g>
<g><path style="opacity:0.004" fill="#fefffe" d="M 250.5,60.5 C 251.833,61.1667 251.833,61.1667 250.5,60.5 Z"/></g>
<g><path style="opacity:0.004" fill="#fefffe" d="M 64.5,63.5 C 65.8333,64.1667 65.8333,64.1667 64.5,63.5 Z"/></g>
<g><path style="opacity:0.004" fill="#fefffe" d="M 99.5,64.5 C 100.833,65.1667 100.833,65.1667 99.5,64.5 Z"/></g>
<g><path style="opacity:0.004" fill="#fefffe" d="M 88.5,66.5 C 89.8333,67.1667 89.8333,67.1667 88.5,66.5 Z"/></g>
<g><path style="opacity:0.004" fill="#fefffe" d="M 231.5,67.5 C 232.833,68.1667 232.833,68.1667 231.5,67.5 Z"/></g>
<g><path style="opacity:0.004" fill="#fefffe" d="M 260.5,74.5 C 261.833,75.1667 261.833,75.1667 260.5,74.5 Z"/></g>
<g><path style="opacity:0.004" fill="#fefffe" d="M 7.5,75.5 C 8.83333,76.1667 8.83333,76.1667 7.5,75.5 Z"/></g>
<g><path style="opacity:0.879" fill="#cad4d8" d="M 175.5,83.5 C 172.833,83.5 170.167,83.5 167.5,83.5C 166.172,82.4928 165.172,81.1595 164.5,79.5C 162.363,78.9202 160.53,77.9202 159,76.5C 149.397,77.6939 139.73,77.6939 130,76.5C 128.167,76.6667 126.333,76.8333 124.5,77C 123.347,78.883 121.681,79.7163 119.5,79.5C 120.219,77.1119 121.885,75.6119 124.5,75C 137.5,74.3333 150.5,74.3333 163.5,75C 167.167,76 169.5,78.3333 170.5,82C 172.382,82.1981 174.048,82.6981 175.5,83.5 Z"/></g>
<g><path style="opacity:1" fill="#b8c6cf" d="M 167.5,83.5 C 154.5,83.5 141.5,83.5 128.5,83.5C 125.167,83.5 121.833,83.5 118.5,83.5C 119.234,82.2921 119.567,80.9587 119.5,79.5C 121.681,79.7163 123.347,78.883 124.5,77C 126.333,76.8333 128.167,76.6667 130,76.5C 139.73,77.6939 149.397,77.6939 159,76.5C 160.53,77.9202 162.363,78.9202 164.5,79.5C 165.172,81.1595 166.172,82.4928 167.5,83.5 Z"/></g>
<g><path style="opacity:0.004" fill="#fefffe" d="M 232.5,78.5 C 233.833,79.1667 233.833,79.1667 232.5,78.5 Z"/></g>
<g><path style="opacity:0.004" fill="#fefffe" d="M 193.5,81.5 C 194.833,82.1667 194.833,82.1667 193.5,81.5 Z"/></g>
<g><path style="opacity:0.149" fill="#e6f0f5" d="M 119.5,79.5 C 119.567,80.9587 119.234,82.2921 118.5,83.5C 116.833,83.5 115.167,83.5 113.5,83.5C 115.81,82.675 117.81,81.3417 119.5,79.5 Z"/></g>
<g><path style="opacity:0.004" fill="#fefffe" d="M 77.5,83.5 C 78.8333,84.1667 78.8333,84.1667 77.5,83.5 Z"/></g>
<g><path style="opacity:0.004" fill="#fefffe" d="M 14.5,86.5 C 15.8333,87.1667 15.8333,87.1667 14.5,86.5 Z"/></g>
<g><path style="opacity:0.004" fill="#fefffe" d="M 262.5,87.5 C 263.833,88.1667 263.833,88.1667 262.5,87.5 Z"/></g>
<g><path style="opacity:0.004" fill="#fefffe" d="M 239.5,89.5 C 240.833,90.1667 240.833,90.1667 239.5,89.5 Z"/></g>
<g><path style="opacity:0.004" fill="#fefffe" d="M 85.5,93.5 C 86.8333,94.1667 86.8333,94.1667 85.5,93.5 Z"/></g>
<g><path style="opacity:1" fill="#a5b3bc" d="M 128.5,83.5 C 141.5,83.5 154.5,83.5 167.5,83.5C 170.167,83.5 172.833,83.5 175.5,83.5C 175.75,84.9221 176.583,85.9221 178,86.5C 178.5,104.83 178.667,123.164 178.5,141.5C 161.833,141.5 145.167,141.5 128.5,141.5C 128.5,122.167 128.5,102.833 128.5,83.5 Z"/></g>
<g><path style="opacity:1" fill="#d5dee9" d="M 165.5,88.5 C 173.524,87.2649 175.524,90.0982 171.5,97C 164.778,97.6846 162.778,94.8513 165.5,88.5 Z"/></g>
<g><path style="opacity:0.991" fill="#919fa8" d="M 113.5,83.5 C 115.167,83.5 116.833,83.5 118.5,83.5C 121.833,83.5 125.167,83.5 128.5,83.5C 128.5,102.833 128.5,122.167 128.5,141.5C 122.167,141.5 115.833,141.5 109.5,141.5C 109.333,123.497 109.5,105.497 110,87.5C 110.513,86.4734 111.013,85.4734 111.5,84.5C 111.842,83.6618 112.508,83.3284 113.5,83.5 Z"/></g>
<g><path style="opacity:1" fill="#8d9ea6" d="M 125.5,84.5 C 126.831,91.3008 127.497,98.4675 127.5,106C 127.542,115.867 127.042,125.7 126,135.5C 125.503,132.854 125.336,130.187 125.5,127.5C 122.5,127.5 119.5,127.5 116.5,127.5C 116.813,130.247 116.48,132.914 115.5,135.5C 114.692,124.799 114.358,114.132 114.5,103.5C 114.737,100.937 115.237,100.937 116,103.5C 117.092,100.956 117.759,98.2889 118,95.5C 118.333,97.5 118.667,99.5 119,101.5C 120.642,95.5641 122.808,89.8974 125.5,84.5 Z"/></g>
<g><path style="opacity:0.129" fill="#dfe7eb" d="M 179.5,88.5 C 180.332,105.662 180.832,122.995 181,140.5C 186.673,142.674 188.84,146.841 187.5,153C 187.333,155.5 187.167,158 187,160.5C 186.623,161.942 185.79,162.942 184.5,163.5C 185.584,157.217 185.751,150.884 185,144.5C 183.556,142.845 181.722,142.178 179.5,142.5C 179.5,124.5 179.5,106.5 179.5,88.5 Z"/></g>
<g><path style="opacity:1" fill="#d6dfe7" d="M 166.5,101.5 C 168.167,101.5 169.833,101.5 171.5,101.5C 171.664,104.187 171.497,106.854 171,109.5C 169.667,112.167 168.333,112.167 167,109.5C 166.503,106.854 166.336,104.187 166.5,101.5 Z"/></g>
<g><path style="opacity:0.004" fill="#fefffe" d="M 57.5,109.5 C 58.8333,110.167 58.8333,110.167 57.5,109.5 Z"/></g>
<g><path style="opacity:0.004" fill="#fefffe" d="M 210.5,109.5 C 211.833,110.167 211.833,110.167 210.5,109.5 Z"/></g>
<g><path style="opacity:0.004" fill="#fefffe" d="M 286.5,111.5 C 287.833,112.167 287.833,112.167 286.5,111.5 Z"/></g>
<g><path style="opacity:0.082" fill="#e9f2f3" d="M 108.5,88.5 C 108.667,106.17 108.5,123.836 108,141.5C 106.989,142.337 105.822,142.67 104.5,142.5C 105.172,141.733 106.005,141.066 107,140.5C 107.168,122.995 107.668,105.662 108.5,88.5 Z"/></g>
<g><path style="opacity:1" fill="#ced9e1" d="M 167.5,137.5 C 166.508,129.684 166.174,121.684 166.5,113.5C 168.167,113.5 169.833,113.5 171.5,113.5C 171.5,121.833 171.5,130.167 171.5,138.5C 169.901,138.768 168.568,138.434 167.5,137.5 Z"/></g>
<g><path style="opacity:0.004" fill="#fefffe" d="M 192.5,118.5 C 193.833,119.167 193.833,119.167 192.5,118.5 Z"/></g>
<g><path style="opacity:0.004" fill="#fefffe" d="M 18.5,121.5 C 19.8333,122.167 19.8333,122.167 18.5,121.5 Z"/></g>
<g><path style="opacity:0.004" fill="#fefffe" d="M 32.5,128.5 C 33.8333,129.167 33.8333,129.167 32.5,128.5 Z"/></g>
<g><path style="opacity:0.004" fill="#fefffe" d="M 212.5,128.5 C 213.833,129.167 213.833,129.167 212.5,128.5 Z"/></g>
<g><path style="opacity:0.004" fill="#fefffe" d="M 233.5,128.5 C 234.833,129.167 234.833,129.167 233.5,128.5 Z"/></g>
<g><path style="opacity:0.004" fill="#fefffe" d="M 74.5,131.5 C 75.8333,132.167 75.8333,132.167 74.5,131.5 Z"/></g>
<g><path style="opacity:1" fill="#d9e5ed" d="M 167.5,137.5 C 167.5,129.833 167.5,122.167 167.5,114.5C 168.5,114.5 169.5,114.5 170.5,114.5C 170.5,122.167 170.5,129.833 170.5,137.5C 169.5,137.5 168.5,137.5 167.5,137.5 Z"/></g>
<g><path style="opacity:0.004" fill="#fefffe" d="M 243.5,133.5 C 244.833,134.167 244.833,134.167 243.5,133.5 Z"/></g>
<g><path style="opacity:0.004" fill="#fefffe" d="M 235.5,138.5 C 236.833,139.167 236.833,139.167 235.5,138.5 Z"/></g>
<g><path style="opacity:1" fill="#a6b3bc" d="M 111.5,84.5 C 111.013,85.4734 110.513,86.4734 110,87.5C 109.5,105.497 109.333,123.497 109.5,141.5C 115.833,141.5 122.167,141.5 128.5,141.5C 128.799,148.891 128.465,156.224 127.5,163.5C 143.486,164.499 159.486,164.833 175.5,164.5C 175.5,165.5 175.5,166.5 175.5,167.5C 174.712,170.621 172.712,172.288 169.5,172.5C 169.5,171.5 169.5,170.5 169.5,169.5C 171.958,169.773 173.625,168.773 174.5,166.5C 154.465,165.822 134.465,165.155 114.5,164.5C 113.893,164.624 113.56,164.957 113.5,165.5C 111.283,164.631 108.95,164.298 106.5,164.5C 104.368,164.446 103.035,163.446 102.5,161.5C 102.5,160.167 102.5,158.833 102.5,157.5C 100.801,157.66 99.1341,157.494 97.5,157C 98.435,154.619 98.7683,152.119 98.5,149.5C 99.791,149.737 100.791,149.404 101.5,148.5C 102.434,147.432 102.768,146.099 102.5,144.5C 102.5,143.167 103.167,142.5 104.5,142.5C 105.822,142.67 106.989,142.337 108,141.5C 108.5,123.836 108.667,106.17 108.5,88.5C 108.554,86.368 109.554,85.0347 111.5,84.5 Z"/></g>
<g><path style="opacity:1" fill="#b8c6ce" d="M 175.5,83.5 C 178.297,83.9666 179.631,85.6333 179.5,88.5C 179.5,106.5 179.5,124.5 179.5,142.5C 181.722,142.178 183.556,142.845 185,144.5C 185.751,150.884 185.584,157.217 184.5,163.5C 181.401,164.588 178.401,165.922 175.5,167.5C 175.5,166.5 175.5,165.5 175.5,164.5C 159.486,164.833 143.486,164.499 127.5,163.5C 128.465,156.224 128.799,148.891 128.5,141.5C 145.167,141.5 161.833,141.5 178.5,141.5C 178.667,123.164 178.5,104.83 178,86.5C 176.583,85.9221 175.75,84.9221 175.5,83.5 Z"/></g>
<g><path style="opacity:0.004" fill="#fefffe" d="M 246.5,145.5 C 247.833,146.167 247.833,146.167 246.5,145.5 Z"/></g>
<g><path style="opacity:0.137" fill="#e7eaed" d="M 102.5,144.5 C 102.768,146.099 102.434,147.432 101.5,148.5C 99.8212,148.715 98.8212,148.048 98.5,146.5C 99.1174,146.611 99.6174,146.944 100,147.5C 100.852,146.429 101.685,145.429 102.5,144.5 Z"/></g>
<g><path style="opacity:0.184" fill="#e5ecee" d="M 88.5,145.5 C 89.2436,148.95 87.9103,150.616 84.5,150.5C 73.1618,150.333 61.8284,150.5 50.5,151C 49.3913,152.876 48.3913,154.709 47.5,156.5C 47.317,154.064 47.9837,151.897 49.5,150C 60.5933,148.306 71.5933,148.14 82.5,149.5C 83.8333,149.167 85.1667,148.833 86.5,148.5C 86.9424,147.261 87.6091,146.261 88.5,145.5 Z"/></g>
<g><path style="opacity:0.004" fill="#fefffe" d="M 199.5,150.5 C 200.833,151.167 200.833,151.167 199.5,150.5 Z"/></g>
<g><path style="opacity:1" fill="#e2eef6" d="M 175.5,147.5 C 177.167,147.5 178.833,147.5 180.5,147.5C 180.5,151.5 180.5,155.5 180.5,159.5C 178.549,159.773 177.049,159.107 176,157.5C 175.502,154.183 175.335,150.85 175.5,147.5 Z"/></g>
<g><path style="opacity:1" fill="#bdcad1" d="M 98.5,146.5 C 98.8212,148.048 99.8212,148.715 101.5,148.5C 100.791,149.404 99.791,149.737 98.5,149.5C 98.7683,152.119 98.435,154.619 97.5,157C 99.1341,157.494 100.801,157.66 102.5,157.5C 102.5,158.833 102.5,160.167 102.5,161.5C 101.842,160.602 101.176,159.602 100.5,158.5C 97.1117,162.477 93.1117,163.311 88.5,161C 87.7476,160.329 87.4142,159.496 87.5,158.5C 87.5,157.167 86.8333,156.5 85.5,156.5C 86.968,155.221 87.6347,153.554 87.5,151.5C 86.209,151.737 85.209,151.404 84.5,150.5C 87.9103,150.616 89.2436,148.95 88.5,145.5C 91.3035,144.362 94.3035,144.195 97.5,145C 98.056,145.383 98.3893,145.883 98.5,146.5 Z"/></g>
<g><path style="opacity:0.039" fill="#ecf9fb" d="M 85.5,156.5 C 86.8333,156.5 87.5,157.167 87.5,158.5C 76.8943,157.192 66.2277,157.192 55.5,158.5C 54.5315,161.769 53.1981,164.769 51.5,167.5C 51.5,167.167 51.5,166.833 51.5,166.5C 52.2946,163.45 53.2946,160.45 54.5,157.5C 64.8119,156.501 75.1452,156.168 85.5,156.5 Z"/></g>
<g><path style="opacity:0.004" fill="#fefffe" d="M 195.5,160.5 C 196.833,161.167 196.833,161.167 195.5,160.5 Z"/></g>
<g><path style="opacity:0.978" fill="#aab4ba" d="M 84.5,150.5 C 85.209,151.404 86.209,151.737 87.5,151.5C 87.6347,153.554 86.968,155.221 85.5,156.5C 75.1452,156.168 64.8119,156.501 54.5,157.5C 53.2946,160.45 52.2946,163.45 51.5,166.5C 49.8561,166.714 48.3561,166.38 47,165.5C 46.6987,162.493 46.8654,159.493 47.5,156.5C 48.3913,154.709 49.3913,152.876 50.5,151C 61.8284,150.5 73.1618,150.333 84.5,150.5 Z"/></g>
<g><path style="opacity:0.265" fill="#d6dadc" d="M 47.5,156.5 C 46.8654,159.493 46.6987,162.493 47,165.5C 48.3561,166.38 49.8561,166.714 51.5,166.5C 51.5,166.833 51.5,167.167 51.5,167.5C 48.4993,168.51 46.1659,167.51 44.5,164.5C 45.2092,161.616 46.2092,158.949 47.5,156.5 Z"/></g>
<g><path style="opacity:1" fill="#8f9ea6" d="M 169.5,172.5 C 164.968,172.182 160.634,172.515 156.5,173.5C 148.555,172.563 140.555,172.23 132.5,172.5C 132.5,175.167 132.5,177.833 132.5,180.5C 132.167,180.5 131.833,180.5 131.5,180.5C 131.5,177.833 131.5,175.167 131.5,172.5C 127.167,172.5 122.833,172.5 118.5,172.5C 117.508,172.672 116.842,172.338 116.5,171.5C 114.975,169.784 113.975,167.784 113.5,165.5C 113.56,164.957 113.893,164.624 114.5,164.5C 134.465,165.155 154.465,165.822 174.5,166.5C 173.625,168.773 171.958,169.773 169.5,169.5C 169.5,170.5 169.5,171.5 169.5,172.5 Z"/></g>
<g><path style="opacity:0.114" fill="#cdd2d4" d="M 106.5,164.5 C 108.95,164.298 111.283,164.631 113.5,165.5C 113.975,167.784 114.975,169.784 116.5,171.5C 115.504,171.586 114.671,171.252 114,170.5C 112.959,166.498 110.459,164.498 106.5,164.5 Z"/></g>
<g><path style="opacity:1" fill="#7d8994" d="M 156.5,173.5 C 156.5,176.167 156.5,178.833 156.5,181.5C 148.316,181.826 140.316,181.492 132.5,180.5C 132.5,177.833 132.5,175.167 132.5,172.5C 140.555,172.23 148.555,172.563 156.5,173.5 Z"/></g>
<g><path style="opacity:0.133" fill="#dde3e8" d="M 118.5,172.5 C 122.833,172.5 127.167,172.5 131.5,172.5C 131.5,175.167 131.5,177.833 131.5,180.5C 129.735,181.461 127.735,181.795 125.5,181.5C 126.878,180.766 128.378,180.099 130,179.5C 130.495,177.527 130.662,175.527 130.5,173.5C 126.298,173.817 122.298,173.483 118.5,172.5 Z"/></g>
<g><path style="opacity:0.176" fill="#d4dbde" d="M 169.5,172.5 C 165.702,173.483 161.702,173.817 157.5,173.5C 157.338,175.527 157.505,177.527 158,179.5C 162.836,179.821 165.669,182.321 166.5,187C 166.192,188.459 165.525,189.626 164.5,190.5C 164.808,188.076 164.474,185.743 163.5,183.5C 160.966,183.926 158.633,183.259 156.5,181.5C 156.5,178.833 156.5,176.167 156.5,173.5C 160.634,172.515 164.968,172.182 169.5,172.5 Z"/></g>
<g><path style="opacity:0.004" fill="#fefffe" d="M 34.5,183.5 C 35.8333,184.167 35.8333,184.167 34.5,183.5 Z"/></g>
<g><path style="opacity:0.004" fill="#fefffe" d="M 276.5,184.5 C 277.833,185.167 277.833,185.167 276.5,184.5 Z"/></g>
<g><path style="opacity:0.004" fill="#fefffe" d="M 68.5,185.5 C 69.8333,186.167 69.8333,186.167 68.5,185.5 Z"/></g>
<g><path style="opacity:0.997" fill="#bac7d1" d="M 131.5,180.5 C 131.833,180.5 132.167,180.5 132.5,180.5C 140.316,181.492 148.316,181.826 156.5,181.5C 158.633,183.259 160.966,183.926 163.5,183.5C 164.474,185.743 164.808,188.076 164.5,190.5C 164.5,191.167 164.167,191.5 163.5,191.5C 160.895,191.621 158.895,192.621 157.5,194.5C 157.768,196.099 157.434,197.432 156.5,198.5C 156.5,196.5 156.5,194.5 156.5,192.5C 155.5,192.5 154.5,192.5 153.5,192.5C 146.352,191.508 139.019,191.175 131.5,191.5C 131.5,193.833 131.5,196.167 131.5,198.5C 130.549,197.081 130.216,195.415 130.5,193.5C 123.631,193.462 121.131,190.129 123,183.5C 123.417,182.244 124.25,181.577 125.5,181.5C 127.735,181.795 129.735,181.461 131.5,180.5 Z"/></g>
<g><path style="opacity:0.004" fill="#fefffe" d="M 199.5,186.5 C 200.833,187.167 200.833,187.167 199.5,186.5 Z"/></g>
<g><path style="opacity:0.004" fill="#fefffe" d="M 173.5,188.5 C 174.833,189.167 174.833,189.167 173.5,188.5 Z"/></g>
<g><path style="opacity:1" fill="#aeb7c0" d="M 153.5,192.5 C 146.5,192.5 139.5,192.5 132.5,192.5C 132.232,195.119 132.565,197.619 133.5,200C 140.5,200.667 147.5,200.667 154.5,200C 155.044,199.283 155.711,198.783 156.5,198.5C 156.306,200.912 154.973,201.912 152.5,201.5C 146.833,201.5 141.167,201.5 135.5,201.5C 133.027,201.912 131.694,200.912 131.5,198.5C 131.5,196.167 131.5,193.833 131.5,191.5C 139.019,191.175 146.352,191.508 153.5,192.5 Z"/></g>
<g><path style="opacity:0.004" fill="#fefffe" d="M 64.5,192.5 C 65.8333,193.167 65.8333,193.167 64.5,192.5 Z"/></g>
<g><path style="opacity:0.09" fill="#e6ecec" d="M 163.5,191.5 C 161.887,193.088 159.887,194.088 157.5,194.5C 158.895,192.621 160.895,191.621 163.5,191.5 Z"/></g>
<g><path style="opacity:0.004" fill="#fefffe" d="M 221.5,197.5 C 222.833,198.167 222.833,198.167 221.5,197.5 Z"/></g>
<g><path style="opacity:0.855" fill="#7e8892" d="M 153.5,192.5 C 154.5,192.5 155.5,192.5 156.5,192.5C 156.5,194.5 156.5,196.5 156.5,198.5C 155.711,198.783 155.044,199.283 154.5,200C 147.5,200.667 140.5,200.667 133.5,200C 132.565,197.619 132.232,195.119 132.5,192.5C 139.5,192.5 146.5,192.5 153.5,192.5 Z"/></g>
<g><path style="opacity:0.004" fill="#fefffe" d="M 201.5,199.5 C 202.833,200.167 202.833,200.167 201.5,199.5 Z"/></g>
<g><path style="opacity:0.004" fill="#fefffe" d="M 116.5,200.5 C 117.833,201.167 117.833,201.167 116.5,200.5 Z"/></g>
<g><path style="opacity:0.012" fill="#fefffe" d="M 135.5,201.5 C 141.167,201.5 146.833,201.5 152.5,201.5C 147.1,202.187 141.6,202.854 136,203.5C 135.536,202.906 135.369,202.239 135.5,201.5 Z"/></g>
<g><path style="opacity:0.004" fill="#fefffe" d="M 77.5,203.5 C 78.8333,204.167 78.8333,204.167 77.5,203.5 Z"/></g>
<g><path style="opacity:0.004" fill="#fefffe" d="M 117.5,205.5 C 118.833,206.167 118.833,206.167 117.5,205.5 Z"/></g>
<g><path style="opacity:0.004" fill="#fefffe" d="M 138.5,208.5 C 139.833,209.167 139.833,209.167 138.5,208.5 Z"/></g>
<g><path style="opacity:0.004" fill="#fefffe" d="M 99.5,211.5 C 100.833,212.167 100.833,212.167 99.5,211.5 Z"/></g>
<g><path style="opacity:0.004" fill="#fefffe" d="M 181.5,216.5 C 182.833,217.167 182.833,217.167 181.5,216.5 Z"/></g>
<g><path style="opacity:0.004" fill="#fefffe" d="M 51.5,220.5 C 52.8333,221.167 52.8333,221.167 51.5,220.5 Z"/></g>
<g><path style="opacity:0.004" fill="#fefffe" d="M 249.5,226.5 C 250.833,227.167 250.833,227.167 249.5,226.5 Z"/></g>
<g><path style="opacity:0.004" fill="#fefffe" d="M 9.5,232.5 C 10.8333,233.167 10.8333,233.167 9.5,232.5 Z"/></g>
<g><path style="opacity:0.004" fill="#fefffe" d="M 211.5,234.5 C 212.833,235.167 212.833,235.167 211.5,234.5 Z"/></g>
<g><path style="opacity:0.004" fill="#fefffe" d="M 259.5,234.5 C 260.833,235.167 260.833,235.167 259.5,234.5 Z"/></g>
<g><path style="opacity:0.004" fill="#fefffe" d="M 293.5,236.5 C 294.833,237.167 294.833,237.167 293.5,236.5 Z"/></g>
<g><path style="opacity:0.004" fill="#fefffe" d="M 87.5,238.5 C 88.8333,239.167 88.8333,239.167 87.5,238.5 Z"/></g>
<g><path style="opacity:0.004" fill="#fefffe" d="M 185.5,239.5 C 186.833,240.167 186.833,240.167 185.5,239.5 Z"/></g>
<g><path style="opacity:0.004" fill="#fefffe" d="M 253.5,240.5 C 254.833,241.167 254.833,241.167 253.5,240.5 Z"/></g>
<g><path style="opacity:0.004" fill="#fefffe" d="M 129.5,253.5 C 130.833,254.167 130.833,254.167 129.5,253.5 Z"/></g>
<g><path style="opacity:0.004" fill="#fefffe" d="M 146.5,254.5 C 147.833,255.167 147.833,255.167 146.5,254.5 Z"/></g>
<g><path style="opacity:0.004" fill="#fefffe" d="M 103.5,255.5 C 104.833,256.167 104.833,256.167 103.5,255.5 Z"/></g>
<g><path style="opacity:0.004" fill="#fefffe" d="M 31.5,261.5 C 32.8333,262.167 32.8333,262.167 31.5,261.5 Z"/></g>
<g><path style="opacity:0.004" fill="#fefffe" d="M 172.5,264.5 C 173.833,265.167 173.833,265.167 172.5,264.5 Z"/></g>
<g><path style="opacity:0.004" fill="#fefffe" d="M 27.5,268.5 C 28.8333,269.167 28.8333,269.167 27.5,268.5 Z"/></g>
<g><path style="opacity:0.004" fill="#fefffe" d="M 13.5,270.5 C 14.8333,271.167 14.8333,271.167 13.5,270.5 Z"/></g>



</svg>
