<svg width="52" height="52" viewBox="0 0 52 52" fill="none" xmlns="http://www.w3.org/2000/svg">

<rect x="15.7915" y="29.9314" width="3.12143" height="13.4521" rx="1.56071" transform="rotate(8 15.7915 29.9314)" fill="#989898"/>
<path d="M26.0229 39.7712L15.2999 31.9313H36.7459L26.0229 39.7712Z" fill="#BDBDBD"/>
<path fill-rule="evenodd" clip-rule="evenodd" d="M33.5958 31.9446L23.9834 38.8742L25.598 40.0501L36.7276 31.9446H33.5958Z" fill="#A1A1A1"/>
<path fill-rule="evenodd" clip-rule="evenodd" d="M22.7156 37.309C22.6654 37.4963 22.6387 37.6932 22.6387 37.8964C22.6387 39.1467 23.6523 40.1603 24.9026 40.1603H27.1945C28.4449 40.1603 29.4585 39.1467 29.4585 37.8964C29.4585 37.6932 29.4317 37.4963 29.3815 37.309H22.7156Z" fill="#D9D9D9"/>
<path fill-rule="evenodd" clip-rule="evenodd" d="M22.7148 37.311C22.715 37.3104 22.7152 37.3097 22.7154 37.3091H29.3812C29.4314 37.4965 29.4582 37.6934 29.4582 37.8966C29.4582 39.147 28.4446 40.1606 27.1942 40.1606H26.1606V37.311H22.7148Z" fill="#CCCCCC"/>
<path fill-rule="evenodd" clip-rule="evenodd" d="M33.7339 34.1302L36.5923 32.0403L37.9508 41.707C38.0708 42.5606 37.4761 43.3498 36.6225 43.4697C35.769 43.5897 34.9798 42.995 34.8598 42.1414L33.7339 34.1302Z" fill="#989898"/>
<rect x="13.9185" y="8.6897" width="24.2606" height="24.4283" rx="4.472" fill="#D9D9D9"/>
<path fill-rule="evenodd" clip-rule="evenodd" d="M30.6357 33.1168H33.7073C36.1771 33.1168 38.1793 31.1146 38.1793 28.6448V13.1605C38.1793 10.6907 36.1771 8.68848 33.7073 8.68848H30.6357C33.1056 8.68848 35.1077 10.6907 35.1077 13.1605V28.6448C35.1077 31.1146 33.1056 33.1168 30.6357 33.1168Z" fill="#CCCCCC"/>
<rect x="18.1094" y="15.6208" width="15.9315" height="15.9874" fill="#4BA4E4" fill-opacity="0.69"/>
<rect x="13.1924" y="12.77" width="25.4904" height="1.7888" rx="0.8944" fill="#BDBDBD"/>

<circle cx="26" cy="26" r="23.5" stroke="var(--color-primary)"/>
<circle cx="26" cy="26" r="25.5" stroke="var(--color-primary)"/>


</svg>
