<?xml version="1.0" encoding="UTF-8"?>
<!DOCTYPE svg PUBLIC "-//W3C//DTD SVG 1.1//EN" "http://www.w3.org/Graphics/SVG/1.1/DTD/svg11.dtd">
<svg xmlns="http://www.w3.org/2000/svg" version="1.1" width="270px" height="296px" style="shape-rendering:geometricPrecision; text-rendering:geometricPrecision; image-rendering:optimizeQuality; fill-rule:evenodd; clip-rule:evenodd" xmlns:xlink="http://www.w3.org/1999/xlink">

<circle cx="135" cy="148" r="91" fill="var(--color-background)" stroke="var(--color-primary)" stroke-width="3.7"/>
<circle cx="135" cy="148" r="84" fill="var(--color-background)" stroke="var(--color-primary)" stroke-width="3.7"/>
<g id="core">
<g><path style="opacity:0.579" fill="#d2d2d2" d="M 172.5,67.5 C 172.5,68.1667 172.5,68.8333 172.5,69.5C 164.197,68.1942 155.864,68.1942 147.5,69.5C 147.833,68.8333 148.167,68.1667 148.5,67.5C 156.5,66.1667 164.5,66.1667 172.5,67.5 Z"/></g>
<g><path style="opacity:0.991" fill="#bebebd" d="M 172.5,69.5 C 173.857,70.5903 174.857,71.9236 175.5,73.5C 175.557,79.8513 175.89,86.1846 176.5,92.5C 173.257,91.9609 170.757,90.2943 169,87.5C 168.316,88.7839 168.483,89.9505 169.5,91C 168.344,92.6149 167.011,92.6149 165.5,91C 166.167,90.6667 166.833,90.3333 167.5,90C 159.527,89.1737 159.527,88.6737 167.5,88.5C 166.715,85.5967 165.382,82.93 163.5,80.5C 164.689,79.5713 166.022,79.238 167.5,79.5C 167.5,77.5 167.5,75.5 167.5,73.5C 164.833,73.5 162.167,73.5 159.5,73.5C 159.5,75.5 159.5,77.5 159.5,79.5C 158.022,79.238 156.689,79.5713 155.5,80.5C 154.09,83.4957 152.09,85.9957 149.5,88C 150.167,88.3333 150.833,88.6667 151.5,89C 148.361,90.6444 145.694,92.8111 143.5,95.5C 143.5,96.1667 143.167,96.5 142.5,96.5C 142.5,96.1667 142.5,95.8333 142.5,95.5C 143.622,86.6031 145.289,77.9364 147.5,69.5C 155.864,68.1942 164.197,68.1942 172.5,69.5 Z"/></g>
<g><path style="opacity:0.124" fill="#e5e5e5" d="M 172.5,67.5 C 174.975,68.6874 175.975,70.6874 175.5,73.5C 174.857,71.9236 173.857,70.5903 172.5,69.5C 172.5,68.8333 172.5,68.1667 172.5,67.5 Z"/></g>
<g><path style="opacity:1" fill="#bcbcb9" d="M 176.5,92.5 C 177.11,93.391 177.443,94.391 177.5,95.5C 166.167,95.5 154.833,95.5 143.5,95.5C 145.694,92.8111 148.361,90.6444 151.5,89C 150.833,88.6667 150.167,88.3333 149.5,88C 152.09,85.9957 154.09,83.4957 155.5,80.5C 156.689,79.5713 158.022,79.238 159.5,79.5C 159.5,77.5 159.5,75.5 159.5,73.5C 162.167,73.5 164.833,73.5 167.5,73.5C 167.5,75.5 167.5,77.5 167.5,79.5C 166.022,79.238 164.689,79.5713 163.5,80.5C 165.382,82.93 166.715,85.5967 167.5,88.5C 159.527,88.6737 159.527,89.1737 167.5,90C 166.833,90.3333 166.167,90.6667 165.5,91C 167.011,92.6149 168.344,92.6149 169.5,91C 168.483,89.9505 168.316,88.7839 169,87.5C 170.757,90.2943 173.257,91.9609 176.5,92.5 Z"/></g>
<g><path style="opacity:0.153" fill="#e8e8e8" d="M 148.5,67.5 C 148.167,68.1667 147.833,68.8333 147.5,69.5C 145.289,77.9364 143.622,86.6031 142.5,95.5C 142.167,95.5 141.833,95.5 141.5,95.5C 142.448,87.1461 143.614,78.8128 145,70.5C 145.422,68.5743 146.589,67.5743 148.5,67.5 Z"/></g>
<g><path style="opacity:0.275" fill="#e1e1e1" d="M 175.5,73.5 C 177.46,81.9387 178.794,90.6054 179.5,99.5C 179.167,99.5 178.833,99.5 178.5,99.5C 178.768,97.901 178.434,96.5676 177.5,95.5C 177.443,94.391 177.11,93.391 176.5,92.5C 175.89,86.1846 175.557,79.8513 175.5,73.5 Z"/></g>
<g><path style="opacity:0.999" fill="#a8a8a6" d="M 143.5,95.5 C 154.833,95.5 166.167,95.5 177.5,95.5C 177.5,97.5 177.5,99.5 177.5,101.5C 165.833,101.5 154.167,101.5 142.5,101.5C 142.5,99.8333 142.5,98.1667 142.5,96.5C 143.167,96.5 143.5,96.1667 143.5,95.5 Z"/></g>
<g><path style="opacity:0.075" fill="#f5f5f4" d="M 141.5,96.5 C 141.784,98.4147 141.451,100.081 140.5,101.5C 134.167,101.5 127.833,101.5 121.5,101.5C 127.319,100.672 133.319,100.172 139.5,100C 140.085,98.6976 140.751,97.531 141.5,96.5 Z"/></g>
<g><path style="opacity:1" fill="#bcbcba" d="M 177.5,95.5 C 178.434,96.5676 178.768,97.901 178.5,99.5C 178.5,100.5 178.5,101.5 178.5,102.5C 166.322,102.828 154.322,102.495 142.5,101.5C 154.167,101.5 165.833,101.5 177.5,101.5C 177.5,99.5 177.5,97.5 177.5,95.5 Z"/></g>
<g><path style="opacity:0.273" fill="#ececeb" d="M 179.5,99.5 C 187.165,100.072 194.832,100.905 202.5,102C 203,102.5 203.5,103 204,103.5C 204.172,107.871 204.672,112.204 205.5,116.5C 207.026,116.994 208.359,117.661 209.5,118.5C 209.167,118.5 208.833,118.5 208.5,118.5C 207.5,118.5 206.5,118.5 205.5,118.5C 204.109,113.559 202.775,108.559 201.5,103.5C 194.224,102.535 186.891,102.201 179.5,102.5C 179.5,101.5 179.5,100.5 179.5,99.5 Z"/></g>
<g><path style="opacity:1" fill="#cfcfcd" d="M 141.5,95.5 C 141.833,95.5 142.167,95.5 142.5,95.5C 142.5,95.8333 142.5,96.1667 142.5,96.5C 142.5,98.1667 142.5,99.8333 142.5,101.5C 154.322,102.495 166.322,102.828 178.5,102.5C 178.5,101.5 178.5,100.5 178.5,99.5C 178.833,99.5 179.167,99.5 179.5,99.5C 179.5,100.5 179.5,101.5 179.5,102.5C 186.891,102.201 194.224,102.535 201.5,103.5C 202.775,108.559 204.109,113.559 205.5,118.5C 202.223,118.784 199.057,118.451 196,117.5C 195.501,113.848 195.335,110.182 195.5,106.5C 193.901,106.232 192.568,106.566 191.5,107.5C 190.518,110.962 190.185,114.629 190.5,118.5C 188.5,118.5 186.5,118.5 184.5,118.5C 184.815,114.629 184.482,110.962 183.5,107.5C 182.5,106.167 181.5,106.167 180.5,107.5C 179.518,110.962 179.185,114.629 179.5,118.5C 177.265,118.795 175.265,118.461 173.5,117.5C 173.5,114.167 173.5,110.833 173.5,107.5C 172.167,107.5 170.833,107.5 169.5,107.5C 168.521,110.625 168.187,113.958 168.5,117.5C 166.833,117.5 165.167,117.5 163.5,117.5C 164.069,113.671 163.402,110.337 161.5,107.5C 160.5,107.5 159.5,107.5 158.5,107.5C 157.518,110.962 157.185,114.629 157.5,118.5C 155.5,118.5 153.5,118.5 151.5,118.5C 151.5,114.5 151.5,110.5 151.5,106.5C 149.901,106.232 148.568,106.566 147.5,107.5C 146.518,110.962 146.185,114.629 146.5,118.5C 144.5,118.5 142.5,118.5 140.5,118.5C 140.5,114.833 140.5,111.167 140.5,107.5C 139.167,107.5 137.833,107.5 136.5,107.5C 135.518,110.962 135.185,114.629 135.5,118.5C 133.833,118.5 132.167,118.5 130.5,118.5C 130.815,114.629 130.482,110.962 129.5,107.5C 128.081,106.549 126.415,106.216 124.5,106.5C 124.5,110.167 124.5,113.833 124.5,117.5C 121.482,117.704 118.482,118.037 115.5,118.5C 116.921,113.427 118.254,108.261 119.5,103C 126.679,102.829 133.679,102.329 140.5,101.5C 141.451,100.081 141.784,98.4147 141.5,96.5C 141.5,96.1667 141.5,95.8333 141.5,95.5 Z"/></g>
<g><path style="opacity:0.294" fill="#e9e9e8" d="M 121.5,101.5 C 127.833,101.5 134.167,101.5 140.5,101.5C 133.679,102.329 126.679,102.829 119.5,103C 118.254,108.261 116.921,113.427 115.5,118.5C 114.833,118.5 114.167,118.5 113.5,118.5C 112.833,118.5 112.167,118.5 111.5,118.5C 112.261,117.609 113.261,116.942 114.5,116.5C 115.203,112.13 116.036,107.796 117,103.5C 118.11,101.963 119.61,101.297 121.5,101.5 Z"/></g>
<g><path style="opacity:1" fill="#bdbdbb" d="M 129.5,107.5 C 130.482,110.962 130.815,114.629 130.5,118.5C 132.167,118.5 133.833,118.5 135.5,118.5C 135.185,114.629 135.518,110.962 136.5,107.5C 136.5,111.167 136.5,114.833 136.5,118.5C 137.833,118.5 139.167,118.5 140.5,118.5C 142.5,118.5 144.5,118.5 146.5,118.5C 146.185,114.629 146.518,110.962 147.5,107.5C 148.568,106.566 149.901,106.232 151.5,106.5C 151.5,110.5 151.5,114.5 151.5,118.5C 153.5,118.5 155.5,118.5 157.5,118.5C 157.185,114.629 157.518,110.962 158.5,107.5C 158.5,110.833 158.5,114.167 158.5,117.5C 159.5,117.5 160.5,117.5 161.5,117.5C 161.5,114.167 161.5,110.833 161.5,107.5C 163.402,110.337 164.069,113.671 163.5,117.5C 165.167,117.5 166.833,117.5 168.5,117.5C 168.187,113.958 168.521,110.625 169.5,107.5C 169.5,110.833 169.5,114.167 169.5,117.5C 170.833,117.5 172.167,117.5 173.5,117.5C 175.265,118.461 177.265,118.795 179.5,118.5C 179.185,114.629 179.518,110.962 180.5,107.5C 180.5,110.833 180.5,114.167 180.5,117.5C 181.5,117.5 182.5,117.5 183.5,117.5C 183.5,114.167 183.5,110.833 183.5,107.5C 184.482,110.962 184.815,114.629 184.5,118.5C 186.5,118.5 188.5,118.5 190.5,118.5C 190.185,114.629 190.518,110.962 191.5,107.5C 192.568,106.566 193.901,106.232 195.5,106.5C 195.335,110.182 195.501,113.848 196,117.5C 199.057,118.451 202.223,118.784 205.5,118.5C 206.5,118.5 207.5,118.5 208.5,118.5C 208.5,121.5 208.5,124.5 208.5,127.5C 176.5,127.5 144.5,127.5 112.5,127.5C 112.264,124.391 112.597,121.391 113.5,118.5C 114.167,118.5 114.833,118.5 115.5,118.5C 118.482,118.037 121.482,117.704 124.5,117.5C 124.5,113.833 124.5,110.167 124.5,106.5C 126.415,106.216 128.081,106.549 129.5,107.5 Z"/></g>
<g><path style="opacity:1" fill="#adadab" d="M 191.5,107.5 C 192.5,107.5 193.5,107.5 194.5,107.5C 194.5,111.167 194.5,114.833 194.5,118.5C 193.5,118.5 192.5,118.5 191.5,118.5C 191.5,114.833 191.5,111.167 191.5,107.5 Z"/></g>
<g><path style="opacity:1" fill="#aaaaa8" d="M 158.5,107.5 C 159.5,107.5 160.5,107.5 161.5,107.5C 161.5,110.833 161.5,114.167 161.5,117.5C 160.5,117.5 159.5,117.5 158.5,117.5C 158.5,114.167 158.5,110.833 158.5,107.5 Z"/></g>
<g><path style="opacity:1" fill="#b0b0ae" d="M 136.5,107.5 C 137.833,107.5 139.167,107.5 140.5,107.5C 140.5,111.167 140.5,114.833 140.5,118.5C 139.167,118.5 137.833,118.5 136.5,118.5C 136.5,114.833 136.5,111.167 136.5,107.5 Z"/></g>
<g><path style="opacity:1" fill="#ababa9" d="M 169.5,107.5 C 170.833,107.5 172.167,107.5 173.5,107.5C 173.5,110.833 173.5,114.167 173.5,117.5C 172.167,117.5 170.833,117.5 169.5,117.5C 169.5,114.167 169.5,110.833 169.5,107.5 Z"/></g>
<g><path style="opacity:1" fill="#aaaaa8" d="M 147.5,107.5 C 148.5,107.5 149.5,107.5 150.5,107.5C 150.5,110.833 150.5,114.167 150.5,117.5C 149.5,117.5 148.5,117.5 147.5,117.5C 147.5,114.167 147.5,110.833 147.5,107.5 Z"/></g>
<g><path style="opacity:1" fill="#afafad" d="M 129.5,107.5 C 129.665,110.85 129.498,114.183 129,117.5C 127.989,118.337 126.822,118.67 125.5,118.5C 125.5,114.833 125.5,111.167 125.5,107.5C 126.833,107.5 128.167,107.5 129.5,107.5 Z"/></g>
<g><path style="opacity:1" fill="#acacaa" d="M 183.5,107.5 C 183.5,110.833 183.5,114.167 183.5,117.5C 182.5,117.5 181.5,117.5 180.5,117.5C 180.5,114.167 180.5,110.833 180.5,107.5C 181.5,106.167 182.5,106.167 183.5,107.5 Z"/></g>
<g><path style="opacity:0.161" fill="#e7e7e6" d="M 111.5,118.5 C 111.5,121.5 111.5,124.5 111.5,127.5C 105.653,128.657 103.653,131.99 105.5,137.5C 104.883,137.389 104.383,137.056 104,136.5C 103.333,134.5 103.333,132.5 104,130.5C 105.775,128.606 107.775,126.939 110,125.5C 110.186,122.964 110.686,120.631 111.5,118.5 Z"/></g>
<g><path style="opacity:1" fill="#c9c9c7" d="M 111.5,118.5 C 112.167,118.5 112.833,118.5 113.5,118.5C 112.597,121.391 112.264,124.391 112.5,127.5C 144.5,127.5 176.5,127.5 208.5,127.5C 176.167,128.833 143.833,128.833 111.5,127.5C 111.5,124.5 111.5,121.5 111.5,118.5 Z"/></g>
<g><path style="opacity:1" fill="#d0d0ce" d="M 208.5,118.5 C 208.833,118.5 209.167,118.5 209.5,118.5C 209.5,118.833 209.5,119.167 209.5,119.5C 208.101,124.973 209.934,128.64 215,130.5C 215.495,132.473 215.662,134.473 215.5,136.5C 215.027,137.906 214.027,138.573 212.5,138.5C 210.708,138.366 209.042,138.699 207.5,139.5C 176.338,138.502 145.004,138.168 113.5,138.5C 113.5,139.833 113.5,141.167 113.5,142.5C 112.566,141.432 112.232,140.099 112.5,138.5C 110.833,138.5 109.167,138.5 107.5,138.5C 106.508,138.672 105.842,138.338 105.5,137.5C 103.653,131.99 105.653,128.657 111.5,127.5C 143.833,128.833 176.167,128.833 208.5,127.5C 208.5,124.5 208.5,121.5 208.5,118.5 Z"/></g>
<g><path style="opacity:0.282" fill="#e9e9e8" d="M 209.5,119.5 C 210.314,121.631 210.814,123.964 211,126.5C 216.233,127.392 218.233,130.392 217,135.5C 216.617,136.056 216.117,136.389 215.5,136.5C 215.662,134.473 215.495,132.473 215,130.5C 209.934,128.64 208.101,124.973 209.5,119.5 Z"/></g>
<g><path style="opacity:1" fill="#c3c3c1" d="M 207.5,139.5 C 207.795,141.735 207.461,143.735 206.5,145.5C 175.833,145.5 145.167,145.5 114.5,145.5C 113.596,144.791 113.263,143.791 113.5,142.5C 113.5,141.167 113.5,139.833 113.5,138.5C 145.004,138.168 176.338,138.502 207.5,139.5 Z"/></g>
<g><path style="opacity:1" fill="#bcbcba" d="M 114.5,139.5 C 145.167,139.5 175.833,139.5 206.5,139.5C 206.5,141.167 206.5,142.833 206.5,144.5C 203.921,144.917 201.754,144.25 200,142.5C 199.667,143.167 199.333,143.833 199,144.5C 171.041,144.483 142.875,144.483 114.5,144.5C 114.5,142.833 114.5,141.167 114.5,139.5 Z"/></g>
<g><path style="opacity:0.957" fill="#d5d5d4" d="M 206.5,146.5 C 205.044,152.391 204.377,158.391 204.5,164.5C 203.866,170.145 203.532,175.811 203.5,181.5C 202.833,183.167 202.167,184.833 201.5,186.5C 201.666,177.827 201.5,169.16 201,160.5C 198.714,161.492 198.214,163.326 199.5,166C 199.354,168.76 198.687,171.26 197.5,173.5C 197.5,169.833 197.5,166.167 197.5,162.5C 196.167,162.5 194.833,162.5 193.5,162.5C 194.833,161.5 194.833,160.5 193.5,159.5C 199.082,159.943 201.416,157.61 200.5,152.5C 195.155,150.098 192.821,151.765 193.5,157.5C 191.148,156.048 190.815,154.048 192.5,151.5C 195.139,148.396 197.972,148.063 201,150.5C 201.311,149.258 200.811,148.258 199.5,147.5C 201.808,147.447 204.142,147.114 206.5,146.5 Z"/></g>
<g><path style="opacity:1" fill="#d0d0ce" d="M 114.5,145.5 C 145.167,145.5 175.833,145.5 206.5,145.5C 206.5,145.833 206.5,146.167 206.5,146.5C 204.142,147.114 201.808,147.447 199.5,147.5C 200.811,148.258 201.311,149.258 201,150.5C 197.972,148.063 195.139,148.396 192.5,151.5C 190.815,154.048 191.148,156.048 193.5,157.5C 193.5,158.167 193.5,158.833 193.5,159.5C 194.833,160.5 194.833,161.5 193.5,162.5C 192.698,163.952 192.198,165.618 192,167.5C 191.447,177.501 190.947,187.501 190.5,197.5C 191.833,197.5 193.167,197.5 194.5,197.5C 194.366,190.862 195.366,184.529 197.5,178.5C 197.176,182.555 197.509,186.555 198.5,190.5C 199.735,189.66 200.735,188.66 201.5,187.5C 200.439,195.842 199.439,204.175 198.5,212.5C 173.994,212.169 149.661,212.502 125.5,213.5C 123.153,214.607 122.82,216.274 124.5,218.5C 123.833,218.5 123.167,218.5 122.5,218.5C 121.89,217.609 121.557,216.609 121.5,215.5C 118.672,192.213 116.339,168.88 114.5,145.5 Z"/></g>
<g><path style="opacity:1" fill="#e8e8e6" d="M 193.5,159.5 C 193.5,158.833 193.5,158.167 193.5,157.5C 192.821,151.765 195.155,150.098 200.5,152.5C 201.416,157.61 199.082,159.943 193.5,159.5 Z"/></g>
<g><path style="opacity:0.533" fill="#e3e3e3" d="M 212.5,138.5 C 211.469,139.249 210.302,139.915 209,140.5C 208.226,145.988 207.393,151.321 206.5,156.5C 205.833,159.167 205.167,161.833 204.5,164.5C 204.377,158.391 205.044,152.391 206.5,146.5C 206.5,146.167 206.5,145.833 206.5,145.5C 207.461,143.735 207.795,141.735 207.5,139.5C 209.042,138.699 210.708,138.366 212.5,138.5 Z"/></g>
<g><path style="opacity:0.997" fill="#d0cfcd" d="M 201.5,186.5 C 201.5,186.833 201.5,187.167 201.5,187.5C 200.735,188.66 199.735,189.66 198.5,190.5C 197.509,186.555 197.176,182.555 197.5,178.5C 197.5,176.833 197.5,175.167 197.5,173.5C 198.687,171.26 199.354,168.76 199.5,166C 198.214,163.326 198.714,161.492 201,160.5C 201.5,169.16 201.666,177.827 201.5,186.5 Z"/></g>
<g><path style="opacity:1" fill="#e7e6e4" d="M 193.5,162.5 C 194.833,162.5 196.167,162.5 197.5,162.5C 197.5,166.167 197.5,169.833 197.5,173.5C 197.5,175.167 197.5,176.833 197.5,178.5C 195.366,184.529 194.366,190.862 194.5,197.5C 193.167,197.5 191.833,197.5 190.5,197.5C 190.947,187.501 191.447,177.501 192,167.5C 192.198,165.618 192.698,163.952 193.5,162.5 Z"/></g>
<g><path style="opacity:0.067" fill="#f1f1f1" d="M 206.5,156.5 C 206.133,165.047 205.133,173.38 203.5,181.5C 203.532,175.811 203.866,170.145 204.5,164.5C 205.167,161.833 205.833,159.167 206.5,156.5 Z"/></g>
<g><path style="opacity:0.145" fill="#f0efef" d="M 107.5,138.5 C 109.167,138.5 110.833,138.5 112.5,138.5C 112.232,140.099 112.566,141.432 113.5,142.5C 113.263,143.791 113.596,144.791 114.5,145.5C 116.339,168.88 118.672,192.213 121.5,215.5C 117.799,191.717 114.632,167.717 112,143.5C 111.652,140.658 110.152,138.991 107.5,138.5 Z"/></g>
<g><path style="opacity:0.067" fill="#ededec" d="M 203.5,181.5 C 202.569,192.518 201.402,203.518 200,214.5C 199.8,216.32 198.966,217.653 197.5,218.5C 197.5,217.5 197.5,216.5 197.5,215.5C 198.404,214.791 198.737,213.791 198.5,212.5C 199.439,204.175 200.439,195.842 201.5,187.5C 201.5,187.167 201.5,186.833 201.5,186.5C 202.167,184.833 202.833,183.167 203.5,181.5 Z"/></g>
<g><path style="opacity:1" fill="#c4c4c2" d="M 125.5,213.5 C 149.661,212.502 173.994,212.169 198.5,212.5C 198.737,213.791 198.404,214.791 197.5,215.5C 173.857,213.51 149.857,212.843 125.5,213.5 Z"/></g>
<g><path style="opacity:0.99" fill="#bebebd" d="M 125.5,213.5 C 149.857,212.843 173.857,213.51 197.5,215.5C 197.5,216.5 197.5,217.5 197.5,218.5C 195.368,218.554 194.035,219.554 193.5,221.5C 193.167,221.5 192.833,221.5 192.5,221.5C 171.167,221.5 149.833,221.5 128.5,221.5C 127.209,221.737 126.209,221.404 125.5,220.5C 125.167,219.833 124.833,219.167 124.5,218.5C 122.82,216.274 123.153,214.607 125.5,213.5 Z"/></g>
<g><path style="opacity:0.145" fill="#ebebeb" d="M 122.5,218.5 C 123.167,218.5 123.833,218.5 124.5,218.5C 124.833,219.167 125.167,219.833 125.5,220.5C 123.973,220.573 122.973,219.906 122.5,218.5 Z"/></g>
<g><path style="opacity:0.075" fill="#e3e3e2" d="M 197.5,218.5 C 196.738,220.262 195.404,221.262 193.5,221.5C 194.035,219.554 195.368,218.554 197.5,218.5 Z"/></g>
<g><path style="opacity:0.004" fill="#f5f5f5" d="M 128.5,221.5 C 149.833,221.5 171.167,221.5 192.5,221.5C 184.169,222.346 175.669,223.013 167,223.5C 154.004,222.943 141.17,222.276 128.5,221.5 Z"/></g>
</g>
</svg>
